<mxfile host="app.diagrams.net" agent="Mozilla/5.0 (Windows NT 10.0; Win64; x64) AppleWebKit/537.36 (KHTML, like Gecko) Chrome/131.0.0.0 Safari/537.36" version="25.0.3">
  <diagram name="Trang-1" id="x4Aq5X9A7OIHZVw82PuF">
    <mxGraphModel grid="1" page="1" gridSize="10" guides="1" tooltips="1" connect="1" arrows="1" fold="1" pageScale="1" pageWidth="827" pageHeight="1169" math="0" shadow="0">
      <root>
        <mxCell id="0" />
        <mxCell id="1" parent="0" />
        <mxCell id="LhS2FYI0Z9fqlaNh6ltW-1" value="Doctors" style="rounded=0;whiteSpace=wrap;html=1;" vertex="1" parent="1">
          <mxGeometry x="70" y="190" width="120" height="60" as="geometry" />
        </mxCell>
        <mxCell id="LhS2FYI0Z9fqlaNh6ltW-2" value="ID" style="ellipse;whiteSpace=wrap;html=1;" vertex="1" parent="1">
          <mxGeometry x="-160" y="80" width="120" height="40" as="geometry" />
        </mxCell>
        <mxCell id="LhS2FYI0Z9fqlaNh6ltW-3" value="Password" style="ellipse;whiteSpace=wrap;html=1;" vertex="1" parent="1">
          <mxGeometry x="-40" y="70" width="120" height="50" as="geometry" />
        </mxCell>
        <mxCell id="LhS2FYI0Z9fqlaNh6ltW-4" value="Full Name" style="ellipse;whiteSpace=wrap;html=1;" vertex="1" parent="1">
          <mxGeometry x="80" y="70" width="120" height="50" as="geometry" />
        </mxCell>
        <mxCell id="LhS2FYI0Z9fqlaNh6ltW-5" value="Email" style="ellipse;whiteSpace=wrap;html=1;" vertex="1" parent="1">
          <mxGeometry x="200" y="70" width="120" height="50" as="geometry" />
        </mxCell>
        <mxCell id="LhS2FYI0Z9fqlaNh6ltW-7" value="" style="endArrow=none;html=1;rounded=0;entryX=0.5;entryY=1;entryDx=0;entryDy=0;exitX=0.5;exitY=0;exitDx=0;exitDy=0;" edge="1" parent="1" source="LhS2FYI0Z9fqlaNh6ltW-1" target="LhS2FYI0Z9fqlaNh6ltW-2">
          <mxGeometry width="50" height="50" relative="1" as="geometry">
            <mxPoint x="390" y="320" as="sourcePoint" />
            <mxPoint x="440" y="270" as="targetPoint" />
          </mxGeometry>
        </mxCell>
        <mxCell id="LhS2FYI0Z9fqlaNh6ltW-8" value="" style="endArrow=none;html=1;rounded=0;entryX=0.5;entryY=1;entryDx=0;entryDy=0;" edge="1" parent="1" target="LhS2FYI0Z9fqlaNh6ltW-3">
          <mxGeometry width="50" height="50" relative="1" as="geometry">
            <mxPoint x="130" y="190" as="sourcePoint" />
            <mxPoint x="450" y="280" as="targetPoint" />
          </mxGeometry>
        </mxCell>
        <mxCell id="LhS2FYI0Z9fqlaNh6ltW-9" value="" style="endArrow=none;html=1;rounded=0;entryX=0.412;entryY=1.068;entryDx=0;entryDy=0;entryPerimeter=0;" edge="1" parent="1" target="LhS2FYI0Z9fqlaNh6ltW-4">
          <mxGeometry width="50" height="50" relative="1" as="geometry">
            <mxPoint x="130" y="190" as="sourcePoint" />
            <mxPoint x="460" y="290" as="targetPoint" />
          </mxGeometry>
        </mxCell>
        <mxCell id="LhS2FYI0Z9fqlaNh6ltW-10" value="" style="endArrow=none;html=1;rounded=0;entryX=0.5;entryY=1;entryDx=0;entryDy=0;exitX=0.5;exitY=0;exitDx=0;exitDy=0;" edge="1" parent="1" source="LhS2FYI0Z9fqlaNh6ltW-1" target="LhS2FYI0Z9fqlaNh6ltW-5">
          <mxGeometry width="50" height="50" relative="1" as="geometry">
            <mxPoint x="420" y="350" as="sourcePoint" />
            <mxPoint x="470" y="300" as="targetPoint" />
          </mxGeometry>
        </mxCell>
        <mxCell id="LhS2FYI0Z9fqlaNh6ltW-12" value="Models" style="rounded=0;whiteSpace=wrap;html=1;" vertex="1" parent="1">
          <mxGeometry x="580" y="190" width="120" height="60" as="geometry" />
        </mxCell>
        <mxCell id="LhS2FYI0Z9fqlaNh6ltW-13" value="" style="ellipse;whiteSpace=wrap;html=1;" vertex="1" parent="1">
          <mxGeometry x="740" y="40" width="120" height="40" as="geometry" />
        </mxCell>
        <mxCell id="LhS2FYI0Z9fqlaNh6ltW-14" value="" style="ellipse;whiteSpace=wrap;html=1;" vertex="1" parent="1">
          <mxGeometry x="600" y="40" width="120" height="40" as="geometry" />
        </mxCell>
        <mxCell id="LhS2FYI0Z9fqlaNh6ltW-15" value="" style="ellipse;whiteSpace=wrap;html=1;" vertex="1" parent="1">
          <mxGeometry x="460" y="40" width="120" height="40" as="geometry" />
        </mxCell>
      </root>
    </mxGraphModel>
  </diagram>
</mxfile>
